<?xml version="1.0" encoding="UTF-8" standalone="no"?>
<!-- Created with Inkscape (http://www.inkscape.org/) -->

<svg
   width="541.742"
   height="320.55219"
   viewBox="0 0 143.33591 84.812764"
   version="1.1"
   id="svg1"
   xmlns="http://www.w3.org/2000/svg"
   xmlns:svg="http://www.w3.org/2000/svg">
  <defs
     id="defs1" />
  <g
     id="layer1">
    <path
       class="st1"
       d="M 0.98353937,20.496884 0.98311398,20.49671 C -4.4405128,37.126752 6.1274271,56.485983 23.846931,60.387743 18.019161,62.728042 6.8719684,61.967505 2.231099,56.786565 c 1.3201406,7.598586 13.243976,22.800338 28.761542,24.395099 14.26383,1.556541 24.971658,-10.572954 28.327958,-19.567986 4.030463,9.641391 -1.629589,20.525457 -7.593112,23.282174 5.759803,0.456403 15.247211,-2.752435 20.263191,-12.956388 4.101123,-8.692481 3.154375,-21.318485 14.573273,-26.567668 6.84442,-2.869769 17.111249,-7.174333 23.820209,-9.628274 13.55338,-5.32371 12.13172,-13.905232 15.99486,-17.985994 3.08369,-2.98496 8.36931,-3.662932 12.06279,-5.929348 3.82931,-2.6819204 5.59201,-8.0867258 5.0505,-11.60251802 -0.61054,4.46041392 -4.30386,6.72634802 -8.43746,6.46023602 -4.64195,-0.00199 -7.5891,-2.6117989 -11.62117,-1.8955031 -5.04811,1.2453202 -5.49024,9.0697871 -9.28507,10.3533031 -3.42228,1.434873 -9.18124,-4.200231 -16.398495,-1.481911 C 90.533016,16.380178 74.302608,23.441464 67.085484,26.159841 54.412952,31.370483 47.740589,16.889628 54.48437,7.858163 42.625518,10.57436 35.541409,28.413346 41.570725,38.395625 33.066714,37.295449 20.125387,27.801368 24.328721,14.913026 26.90496,7.0137081 35.003119,4.1821597 39.746294,5.1674674 24.636424,-2.8535301 6.2716147,4.2824771 0.98353937,20.496884 Z"
       id="path4"
       style="fill:#ec1c24;stroke-width:4.18884" />
  </g>
</svg>
