<?xml version="1.0" encoding="UTF-8" standalone="no"?>
<svg
   width="542"
   height="320"
   viewBox="0 0 143.33591 84.812764"
   version="1.1"
   id="svg1"
   xmlns="http://www.w3.org/2000/svg"
   xmlns:svg="http://www.w3.org/2000/svg">
  <defs
     id="defs1" />
  <g
     id="layer1">
    <path
       class="st1"
       d="m 0.74902073,31.069435 -4.435e-4,-1.2e-4 C -3.4146405,46.585117 8.7920991,63.155288 27.000307,65.117154 21.298448,67.74824 9.9778223,68.045744 4.8799561,63.771415 c 1.9346421,6.753784 15.1821779,19.445032 30.9835789,19.51557 14.531901,0.146782 24.389032,-11.766742 27.067884,-20.19645 4.834102,8.361305 -0.02248,18.702632 -5.828531,21.72223 5.854434,-0.09637 15.184413,-3.836197 19.444178,-13.505662 3.455178,-8.221974 1.500028,-19.554425 12.619721,-25.309783 6.686957,-3.199669 16.717593,-7.999108 23.300603,-10.810823 13.26997,-6.011384 11.15504,-13.644943 14.73462,-17.676084 2.8789,-2.971456 8.1646,-4.051592 11.71632,-6.42725 3.65606,-2.7633521 5.00913,-7.8060278 4.18401,-10.93706404 -0.26391,4.08695564 -3.81552,6.46216474 -8.01217,6.58687074 -4.68927,0.408494 -7.87282,-1.6908177 -11.8892,-0.6868155 -5.00089,1.572127 -4.82856,8.6858928 -8.56042,10.1817948 -3.34355,1.59983 -9.6068,-2.986329 -16.682354,0.109354 C 90.882799,19.433035 75.04605,27.252082 67.970626,30.347804 55.581513,36.179107 47.695838,23.675562 53.793712,14.913534 42.029221,18.417511 36.284281,35.17316 43.164514,43.666034 34.487059,43.422846 20.6632,35.982257 23.889712,23.957454 25.867252,16.587403 33.823711,13.31149 38.693027,13.78319 22.795117,7.8661769 4.8081883,15.941418 0.74902073,31.069435 Z"
       id="path4"
       style="fill:#ec1c24;stroke-width:4.01857" />
  </g>
</svg>
